<?xml version="1.0" standalone="no"?>
<!DOCTYPE svg PUBLIC "-//W3C//DTD SVG 20010904//EN"
 "http://www.w3.org/TR/2001/REC-SVG-20010904/DTD/svg10.dtd">
<svg version="1.0" xmlns="http://www.w3.org/2000/svg"
 width="1024.000000pt" height="1024.000000pt" viewBox="0 0 1024.000000 1024.000000"
 preserveAspectRatio="xMidYMid meet">

<g transform="translate(0.000000,1024.000000) scale(0.100000,-0.100000)"
fill="#000000" stroke="none">
<path d="M5099 8263 c-9 -10 -50 -79 -91 -153 -42 -74 -299 -529 -573 -1010
-273 -481 -567 -999 -653 -1150 -85 -151 -295 -520 -465 -820 -171 -300 -501
-882 -735 -1295 -234 -412 -546 -963 -693 -1224 -148 -261 -269 -484 -269
-496 0 -11 6 -29 13 -38 11 -15 264 -17 3485 -19 l3474 -3 20 24 c12 15 17 33
14 47 -3 12 -57 111 -119 220 -63 110 -365 642 -672 1184 -307 542 -633 1118
-725 1280 -263 463 -641 1132 -1092 1930 -677 1197 -872 1535 -889 1538 -8 1
-22 -5 -30 -15z"/>
</g>
</svg>
