<?xml version="1.0" encoding="UTF-8"?>
<svg version="1.1" xmlns="http://www.w3.org/2000/svg" width="512" height="512">
<path d="M0 0 C2.87575378 3.5050899 4.83152266 7.38556013 6.83619976 11.42351055 C7.21448025 12.17746425 7.59276074 12.93141795 7.98250428 13.70821872 C9.25505844 16.24700719 10.52186681 18.78861949 11.78874207 21.33024597 C12.7066965 23.16456726 13.62500109 24.99871335 14.54362661 26.83269864 C17.07160665 31.8822307 19.59457152 36.93425438 22.11674058 41.98669088 C24.83571757 47.43121075 27.55929415 52.873429 30.28230286 58.31593323 C35.00110292 67.74906917 39.71695448 77.18367488 44.43068504 86.61934471 C49.37513677 96.51685692 54.32106654 106.41362799 59.26903725 116.30938148 C59.57660001 116.92449937 59.88416278 117.53961726 60.20104563 118.17337508 C61.4494629 120.67016872 62.69789006 123.16695742 63.94633068 125.66373938 C75.66050783 149.09118734 87.37034131 172.52080392 99.07800093 195.95150953 C109.48782802 216.78479397 119.90061398 237.61659668 130.31616211 258.44702148 C130.98517713 259.78501111 131.65419213 261.12300075 132.3232071 262.46099039 C132.81932204 263.45318974 132.81932204 263.45318974 133.3254595 264.46543352 C134.99025044 267.7949146 136.65503728 271.12439771 138.31981945 274.45388317 C138.64823082 275.1106892 138.97664219 275.76749522 139.31500542 276.44420446 C148.01043156 293.83469192 156.7038979 311.22615899 165.39669496 328.61796075 C165.70573304 329.23625718 166.01477112 329.85455362 166.33317399 330.4915863 C167.57597324 332.97807307 168.81877245 335.46455986 170.06156128 337.95105184 C174.39203108 346.6151557 178.72316427 355.27892763 183.05472315 363.94248706 C188.63424595 375.10212869 194.21237176 386.26246712 199.78823324 397.42393871 C202.47883451 402.80977403 205.17007784 408.19528597 207.86303329 413.57994461 C210.32384847 418.50048607 212.78283629 423.42193601 215.24031023 428.344147 C216.13386296 430.13307717 217.02810259 431.92166442 217.92306521 433.70988967 C219.13098489 436.12368696 220.33648087 438.53867866 221.54132366 440.95401287 C221.89663081 441.66257184 222.25193795 442.37113082 222.61801198 443.10116127 C225 447.88584507 225 447.88584507 225 449 C76.83 449 -71.34 449 -224 449 C-213.59398131 427.03173832 -213.59398131 427.03173832 -208.21104854 416.29301578 C-207.81330464 415.49891336 -207.41556074 414.70481094 -207.005764 413.88664482 C-206.59316959 413.06298345 -206.18057518 412.23932209 -205.75547791 411.39070129 C-204.86070806 409.60072419 -203.96611446 407.81065897 -203.07167917 406.02051467 C-200.6424627 401.1598701 -198.21078672 396.30045979 -195.77866662 391.44126761 C-193.14543694 386.17916104 -190.5145477 380.91588446 -187.88336182 375.65275574 C-183.33398359 366.55347708 -178.7831511 357.45492699 -174.23130608 348.3568821 C-169.46227793 338.82473643 -164.6940706 329.29218093 -159.92697334 319.75906944 C-159.62952744 319.16424638 -159.33208154 318.56942332 -159.02562213 317.95657531 C-157.51478133 314.9352321 -156.00395534 311.91388148 -154.49313504 308.89252802 C-143.81807041 287.54449392 -133.14115507 266.19738592 -122.46313477 244.85083008 C-112.0956534 224.12506559 -101.72902068 203.39887699 -91.36352539 182.67211914 C-91.04348711 182.0321741 -90.72344882 181.39222905 -90.3937124 180.73289173 C-87.1794824 174.30575034 -83.96526952 167.87860039 -80.75106919 161.45144416 C-74.20455247 148.3609463 -67.65792149 135.27050559 -61.11122131 122.18009949 C-60.8102768 121.57834776 -60.5093323 120.97659603 -60.19926826 120.3566094 C-40.13476123 80.23678143 -20.06758304 40.11828945 0 0 Z " fill="#FF0000" transform="translate(256,32)"/>
</svg>
