<?xml version="1.0" standalone="no"?>
<!DOCTYPE svg PUBLIC "-//W3C//DTD SVG 20010904//EN"
 "http://www.w3.org/TR/2001/REC-SVG-20010904/DTD/svg10.dtd">
<svg version="1.0" xmlns="http://www.w3.org/2000/svg"
 width="1274.000000pt" height="1096.000000pt" viewBox="0 0 1274.000000 1096.000000"
 preserveAspectRatio="xMidYMid meet">

<g transform="translate(0.000000,1096.000000) scale(0.100000,-0.100000)"
fill="#000000" stroke="none">
<path d="M6841 10494 c-84 -23 -150 -63 -227 -139 -159 -158 -199 -378 -106
-588 12 -26 18 -55 15 -63 -4 -10 -1 -15 8 -13 8 1 46 -29 84 -67 104 -102
226 -154 365 -154 333 0 587 325 505 645 -26 100 -63 165 -139 241 -108 108
-221 154 -371 153 -44 0 -104 -7 -134 -15z m319 -33 c180 -71 306 -245 318
-436 9 -156 -42 -287 -151 -392 -99 -96 -214 -143 -347 -143 -225 0 -428 156
-486 374 -16 60 -18 183 -3 246 39 169 195 327 365 369 67 17 241 7 304 -18z"/>
<path d="M6600 10080 c-16 -10 -6 -40 15 -40 8 0 15 -5 15 -11 0 -6 -9 -9 -20
-6 -11 3 -20 1 -20 -5 0 -13 53 -6 57 9 2 6 -8 19 -24 28 -24 14 -24 15 -5 12
12 -3 22 -2 22 3 0 12 -25 19 -40 10z"/>
<path d="M6791 10054 l-1 -42 50 0 c45 0 50 2 50 23 0 26 -22 39 -38 23 -8 -8
-16 -8 -27 2 -8 7 -15 9 -16 4 0 -5 -4 0 -9 11 -7 16 -9 11 -9 -21z m31 -19
c0 -5 -5 -11 -11 -13 -6 -2 -11 4 -11 13 0 9 5 15 11 13 6 -2 11 -8 11 -13z
m58 0 c0 -8 -4 -15 -9 -15 -13 0 -22 16 -14 24 11 11 23 6 23 -9z"/>
<path d="M7001 10048 c1 -37 2 -39 9 -18 5 16 8 19 9 8 2 -27 22 -32 29 -7 l6
24 7 -25 c5 -20 7 -15 8 20 0 42 -1 44 -14 26 -8 -11 -15 -27 -15 -35 -1 -9
-7 -1 -15 17 -19 43 -25 40 -24 -10z"/>
<path d="M7227 10084 c-4 -4 -7 -23 -6 -43 l1 -36 9 33 c11 36 9 58 -4 46z"/>
<path d="M6903 10045 c0 -22 2 -30 4 -17 2 12 2 30 0 40 -3 9 -5 -1 -4 -23z"/>
<path d="M7357 10072 c-7 -10 4 -62 12 -62 4 0 5 16 3 35 -4 36 -7 41 -15 27z"/>
<path d="M6656 10049 c4 -13 8 -32 8 -41 0 -26 5 -22 21 15 12 27 14 28 15 10
0 -13 5 -23 10 -23 6 0 10 9 10 20 0 27 18 25 23 -2 l4 -23 2 23 c0 12 5 22
10 22 5 0 12 -10 14 -22 4 -20 4 -19 6 5 0 15 -2 27 -6 28 -54 8 -86 2 -94
-16 -6 -16 -8 -17 -8 -3 -1 9 -6 20 -12 24 -8 4 -9 -1 -3 -17z"/>
<path d="M6951 10053 c-6 -10 -11 -12 -11 -5 0 24 -20 12 -20 -13 0 -26 15
-34 23 -12 4 10 6 10 6 0 1 -15 41 -18 41 -3 0 5 -7 7 -15 4 -10 -4 -15 0 -15
11 0 12 5 15 16 11 10 -4 14 -1 12 6 -7 20 -26 20 -37 1z"/>
<path d="M7090 10060 c-10 -6 -8 -9 6 -13 16 -4 17 -5 2 -6 -29 -2 -22 -31 7
-31 20 0 25 5 25 24 0 26 -19 39 -40 26z"/>
<path d="M7153 10063 c-7 -3 -12 -17 -12 -31 2 -24 2 -24 6 -4 5 27 23 29 23
2 0 -13 7 -20 20 -20 15 0 20 7 20 26 0 18 -4 25 -14 21 -7 -3 -17 -2 -22 3
-5 4 -15 5 -21 3z"/>
<path d="M7263 10063 c-7 -3 -13 -16 -13 -29 0 -17 6 -24 20 -24 11 0 20 7 20
15 0 18 9 19 30 4 13 -9 12 -10 -2 -5 -10 3 -18 1 -18 -4 0 -13 37 -13 45 -1
3 6 -3 14 -12 20 -11 6 -13 11 -5 11 7 0 10 5 7 10 -4 7 -13 7 -24 0 -10 -5
-22 -5 -27 -1 -5 5 -15 6 -21 4z"/>
<path d="M6970 9960 c-9 -6 -10 -10 -3 -10 6 0 14 -12 16 -27 3 -23 4 -21 6
10 0 20 0 37 -1 37 -2 0 -10 -5 -18 -10z"/>
<path d="M6475 9670 c-3 -5 1 -10 9 -10 9 0 16 5 16 10 0 6 -4 10 -9 10 -6 0
-13 -4 -16 -10z"/>
<path d="M6430 9640 c0 -5 4 -10 9 -10 6 0 13 5 16 10 3 6 -1 10 -9 10 -9 0
-16 -4 -16 -10z"/>
<path d="M6395 9619 c-10 -15 3 -25 16 -12 7 7 7 13 1 17 -6 3 -14 1 -17 -5z"/>
<path d="M6357 9593 c-4 -3 -7 -11 -7 -17 0 -6 5 -5 12 2 6 6 9 14 7 17 -3 3
-9 2 -12 -2z"/>
<path d="M6305 9560 c-3 -5 1 -10 9 -10 9 0 16 5 16 10 0 6 -4 10 -9 10 -6 0
-13 -4 -16 -10z"/>
<path d="M6260 9530 c0 -5 4 -10 9 -10 6 0 13 5 16 10 3 6 -1 10 -9 10 -9 0
-16 -4 -16 -10z"/>
<path d="M6225 9509 c-10 -15 3 -25 16 -12 7 7 7 13 1 17 -6 3 -14 1 -17 -5z"/>
<path d="M6187 9483 c-4 -3 -7 -11 -7 -17 0 -6 5 -5 12 2 6 6 9 14 7 17 -3 3
-9 2 -12 -2z"/>
<path d="M6135 9450 c-3 -5 1 -10 9 -10 9 0 16 5 16 10 0 6 -4 10 -9 10 -6 0
-13 -4 -16 -10z"/>
<path d="M6095 9420 c-3 -5 -2 -10 4 -10 5 0 13 5 16 10 3 6 2 10 -4 10 -5 0
-13 -4 -16 -10z"/>
<path d="M6050 9390 c0 -5 4 -10 9 -10 6 0 13 5 16 10 3 6 -1 10 -9 10 -9 0
-16 -4 -16 -10z"/>
<path d="M6017 9373 c-4 -3 -7 -11 -7 -17 0 -6 5 -5 12 2 6 6 9 14 7 17 -3 3
-9 2 -12 -2z"/>
<path d="M5965 9341 c-6 -11 9 -23 19 -14 9 9 7 23 -3 23 -6 0 -12 -4 -16 -9z"/>
<path d="M5925 9310 c-3 -5 1 -10 9 -10 9 0 16 5 16 10 0 6 -4 10 -9 10 -6 0
-13 -4 -16 -10z"/>
<path d="M5888 9283 c7 -3 16 -2 19 1 4 3 -2 6 -13 5 -11 0 -14 -3 -6 -6z"/>
<path d="M5456 9181 c-4 -5 6 -19 21 -31 l28 -21 -28 4 c-19 3 -25 1 -19 -5
13 -13 44 -7 49 9 3 7 -8 18 -24 24 l-28 12 25 7 c23 7 23 8 3 9 -12 1 -24 -3
-27 -8z"/>
<path d="M5570 9157 c0 -34 3 -38 23 -35 14 2 23 11 25 26 3 19 -2 24 -24 21
-4 0 -11 5 -15 13 -6 8 -9 0 -9 -25z m40 -13 c0 -16 -16 -19 -25 -4 -8 13 4
32 16 25 5 -4 9 -13 9 -21z"/>
<path d="M5683 9155 c0 -22 2 -30 4 -17 2 12 2 30 0 40 -3 9 -5 -1 -4 -23z"/>
<path d="M5953 9155 c0 -22 2 -30 4 -17 2 12 2 30 0 40 -3 9 -5 -1 -4 -23z"/>
<path d="M5714 9169 c-4 -8 -3 -9 4 -5 7 4 12 3 12 -2 0 -6 -7 -13 -16 -16
-20 -8 -9 -26 17 -26 23 0 26 32 5 49 -11 9 -16 9 -22 0z"/>
<path d="M5521 9148 c-1 -22 4 -28 19 -28 15 0 20 6 19 28 -2 23 -2 24 -6 5
-2 -13 -8 -23 -13 -23 -5 0 -11 10 -13 23 -4 19 -4 18 -6 -5z"/>
<path d="M5632 9148 c3 -22 38 -39 38 -19 0 6 -7 8 -17 4 -13 -5 -15 -2 -11
15 4 12 2 22 -4 22 -5 0 -8 -10 -6 -22z"/>
<path d="M5763 9143 c0 -16 5 -23 18 -23 11 0 19 7 19 15 0 8 -6 15 -12 15 -9
0 -8 3 2 10 12 7 10 9 -6 8 -15 -2 -21 -9 -21 -25z"/>
<path d="M5813 9143 c0 -16 5 -23 18 -23 11 0 19 7 19 15 0 8 -6 15 -12 15 -9
0 -8 3 2 10 12 7 10 9 -6 8 -15 -2 -21 -9 -21 -25z"/>
<path d="M5892 9148 c4 -27 33 -36 42 -13 8 22 -1 35 -25 35 -15 0 -20 -6 -17
-22z m36 0 c-6 -18 -28 -21 -28 -4 0 9 7 16 16 16 9 0 14 -5 12 -12z"/>
<path d="M10038 9050 c-200 -34 -361 -172 -418 -359 -28 -88 -27 -230 1 -314
66 -198 222 -328 429 -357 316 -45 610 228 587 545 -14 191 -122 352 -292 435
-108 53 -199 68 -307 50z m-230 -398 c2 -8 -5 -11 -20 -10 -17 2 -23 -2 -23
-16 0 -29 19 -30 46 -2 18 18 34 24 64 23 37 -2 40 -4 42 -32 1 -20 0 -23 -4
-7 -6 28 -23 29 -23 1 0 -14 -5 -19 -14 -16 -7 3 -18 1 -23 -4 -7 -7 -16 -5
-27 6 -9 9 -16 12 -16 6 0 -6 -13 -11 -29 -11 -35 0 -48 27 -31 60 12 23 50
24 58 2z m369 1 c3 -7 -4 -10 -19 -7 -23 5 -23 5 2 -9 21 -13 26 -13 36 1 6 9
18 13 28 9 10 -4 16 -1 16 8 0 19 5 19 30 -2 11 -10 20 -28 20 -40 0 -30 -20
-30 -21 0 l-2 22 -4 -22 c-4 -19 -10 -22 -44 -20 -22 2 -45 -1 -51 -4 -21 -13
-50 10 -42 33 4 14 3 18 -6 13 -6 -4 -10 -16 -7 -26 3 -11 1 -19 -4 -19 -5 0
-9 10 -10 23 l0 22 -9 -22 c-5 -13 -16 -23 -24 -23 -8 0 -17 -6 -19 -12 -3 -7
-6 7 -6 31 -1 41 0 43 24 39 14 -3 28 -2 31 3 2 4 11 6 18 3 8 -3 17 0 21 6 8
14 37 9 42 -7z m-149 -36 c3 -26 -7 -34 -33 -27 -5 2 -22 2 -37 1 -23 -1 -28
3 -28 22 0 32 5 35 53 33 38 -2 42 -5 45 -29z m399 17 c5 -12 7 -12 18 2 15
21 45 12 45 -14 0 -31 -25 -46 -43 -27 -12 11 -17 12 -20 2 -3 -6 -6 -2 -6 11
-1 12 -5 22 -11 22 -5 0 -11 -10 -11 -22 l-2 -23 -4 23 c-6 28 -23 29 -23 1 0
-14 -5 -19 -15 -16 -8 4 -17 2 -20 -3 -10 -16 -35 1 -35 24 0 31 2 32 65 34
41 1 57 -3 62 -14z m-452 -103 c0 -22 -3 -37 -7 -35 -14 9 -8 74 6 74 1 0 1
-18 1 -39z m295 19 c8 -14 8 -26 0 -40 -14 -27 -16 -25 -14 13 1 17 -1 22 -3
10 -3 -19 -11 -23 -39 -23 -25 0 -34 4 -35 18 -1 16 -2 16 -6 0 -2 -10 -9 -18
-14 -18 -5 0 -9 8 -10 18 0 14 -2 14 -9 -3 -6 -13 -9 -15 -9 -5 -1 10 -4 11
-9 4 -9 -14 -130 -16 -138 -2 -11 17 9 27 56 28 100 2 145 -1 152 -13 6 -9 8
-9 8 1 0 19 28 14 33 -5 3 -11 5 -7 6 10 1 32 16 35 31 7z"/>
<path d="M9830 8621 c0 -6 5 -13 10 -16 6 -3 10 1 10 9 0 9 -4 16 -10 16 -5 0
-10 -4 -10 -9z"/>
<path d="M10055 8621 c-3 -5 -1 -12 5 -16 5 -3 10 1 10 9 0 18 -6 21 -15 7z"/>
<path d="M10205 8620 c-8 -13 9 -20 24 -11 10 6 9 10 -3 14 -8 3 -18 2 -21 -3z"/>
<path d="M10145 8610 c3 -5 10 -10 16 -10 5 0 9 5 9 10 0 6 -7 10 -16 10 -8 0
-12 -4 -9 -10z"/>
<path d="M9945 8620 c-8 -13 9 -20 24 -11 10 6 9 10 -3 14 -8 3 -18 2 -21 -3z"/>
<path d="M5500 9030 c0 -5 5 -10 10 -10 6 0 10 5 10 10 0 6 -4 10 -10 10 -5 0
-10 -4 -10 -10z"/>
<path d="M5467 9013 c-4 -3 -7 -11 -7 -17 0 -6 5 -5 12 2 6 6 9 14 7 17 -3 3
-9 2 -12 -2z"/>
<path d="M5415 8981 c-6 -11 9 -23 19 -14 9 9 7 23 -3 23 -6 0 -12 -4 -16 -9z"/>
<path d="M5375 8950 c-3 -5 -2 -10 4 -10 5 0 13 5 16 10 3 6 2 10 -4 10 -5 0
-13 -4 -16 -10z"/>
<path d="M5330 8920 c0 -5 4 -10 9 -10 6 0 13 5 16 10 3 6 -1 10 -9 10 -9 0
-16 -4 -16 -10z"/>
<path d="M5291 8901 c-8 -6 -9 -11 -3 -15 6 -3 14 -1 17 5 9 14 2 20 -14 10z"/>
<path d="M5245 8871 c-6 -11 9 -23 19 -14 9 9 7 23 -3 23 -6 0 -12 -4 -16 -9z"/>
<path d="M5205 8840 c-3 -5 1 -10 9 -10 9 0 16 5 16 10 0 6 -4 10 -9 10 -6 0
-13 -4 -16 -10z"/>
<path d="M5160 8810 c0 -5 5 -10 10 -10 6 0 10 5 10 10 0 6 -4 10 -10 10 -5 0
-10 -4 -10 -10z"/>
<path d="M4407 8799 c-46 -11 -120 -48 -169 -86 -148 -111 -202 -343 -120
-516 62 -134 200 -233 338 -245 35 -2 64 -6 64 -8 0 -2 -9 -18 -20 -36 -25
-41 -25 -51 -1 -43 11 3 21 2 24 -2 3 -4 13 -165 22 -358 10 -192 22 -354 27
-359 11 -14 10 70 -7 359 -20 346 -20 365 5 365 26 0 25 4 -6 46 l-26 34 24 0
c89 0 223 79 293 172 90 120 111 293 51 423 -14 32 -26 59 -26 61 0 2 20 4 45
4 l46 0 -31 45 c-17 25 -35 43 -39 40 -5 -2 -14 -18 -21 -35 l-13 -31 -56 54
c-63 60 -108 87 -190 111 -59 17 -153 19 -214 5z m225 -29 c87 -27 167 -86
217 -161 56 -84 74 -152 69 -255 -4 -70 -10 -94 -41 -158 -152 -307 -588 -305
-740 3 -30 62 -32 72 -32 176 0 108 1 113 38 187 90 184 291 269 489 208z
m308 -142 c0 -5 -13 -8 -30 -8 -34 0 -34 0 -18 35 l12 26 18 -23 c10 -13 18
-26 18 -30z"/>
<path d="M4155 8410 c-3 -5 -1 -10 4 -10 6 0 11 -13 11 -30 0 -16 5 -30 10
-30 6 0 10 14 10 30 0 17 5 30 10 30 6 0 10 5 10 10 0 6 -11 10 -24 10 -14 0
-28 -4 -31 -10z"/>
<path d="M4310 8386 c0 -23 -22 -41 -34 -29 -11 11 -6 23 10 23 8 0 13 4 9 10
-10 17 -36 -2 -33 -24 4 -28 54 -32 61 -4 7 25 25 23 30 -4 4 -16 5 -15 4 6
-2 20 -9 31 -24 37 -20 7 -23 5 -23 -15z"/>
<path d="M4593 8375 c0 -22 2 -30 4 -17 2 12 2 30 0 40 -3 9 -5 -1 -4 -23z"/>
<path d="M4610 8381 c0 -17 5 -33 10 -36 6 -4 10 8 10 29 0 20 -4 36 -10 36
-5 0 -10 -13 -10 -29z"/>
<path d="M4211 8387 c-15 -19 -3 -47 21 -47 15 0 19 6 16 27 -4 31 -20 40 -37
20z"/>
<path d="M4383 8393 c-7 -3 -12 -17 -12 -31 2 -24 2 -24 6 -4 5 27 23 29 23 2
0 -22 15 -27 23 -7 4 10 6 10 6 0 1 -15 41 -18 41 -3 0 6 8 5 20 -2 16 -10 22
-10 32 1 11 10 10 12 -6 9 -24 -4 -33 19 -9 24 12 2 14 6 6 11 -6 4 -18 1 -25
-6 -11 -12 -14 -12 -24 1 -9 13 -12 13 -25 -1 -11 -12 -17 -13 -29 -2 -8 7
-21 10 -27 8z m77 -28 c0 -8 -4 -15 -10 -15 -5 0 -10 7 -10 15 0 8 5 15 10 15
6 0 10 -7 10 -15z"/>
<path d="M4570 8375 c0 -14 -4 -25 -10 -25 -5 0 -10 9 -10 20 0 11 -4 20 -10
20 -11 0 -13 -11 -4 -34 3 -9 15 -16 25 -16 14 0 19 7 19 30 0 17 -2 30 -5 30
-3 0 -5 -11 -5 -25z"/>
<path d="M4641 8373 c-1 -29 2 -33 24 -33 20 0 25 5 25 25 0 14 -4 25 -10 25
-5 0 -10 -9 -10 -20 0 -30 -18 -24 -23 8 -4 25 -4 25 -6 -5z"/>
<path d="M4740 8390 c-10 -6 -8 -9 6 -13 16 -4 17 -5 2 -6 -29 -2 -22 -31 7
-31 20 0 25 5 25 24 0 26 -19 39 -40 26z"/>
<path d="M4700 8365 c0 -14 2 -25 4 -25 2 0 6 11 8 25 3 14 1 25 -3 25 -5 0
-9 -11 -9 -25z"/>
<path d="M5127 8793 c-4 -3 -7 -11 -7 -17 0 -6 5 -5 12 2 6 6 9 14 7 17 -3 3
-9 2 -12 -2z"/>
<path d="M5075 8761 c-6 -11 9 -23 19 -14 9 9 7 23 -3 23 -6 0 -12 -4 -16 -9z"/>
<path d="M5035 8729 c-9 -14 -2 -20 14 -10 8 6 9 11 3 15 -6 3 -14 1 -17 -5z"/>
<path d="M4990 8700 c0 -5 5 -10 10 -10 6 0 10 5 10 10 0 6 -4 10 -10 10 -5 0
-10 -4 -10 -10z"/>
<path d="M4950 8670 c0 -5 5 -10 10 -10 6 0 10 5 10 10 0 6 -4 10 -10 10 -5 0
-10 -4 -10 -10z"/>
<path d="M9210 7264 c-208 -56 -372 -208 -442 -413 -20 -56 -23 -86 -23 -196
1 -115 4 -138 27 -197 59 -156 163 -277 296 -346 115 -60 184 -75 322 -70 99
4 126 9 195 36 188 75 330 234 380 427 20 76 20 233 1 306 -60 225 -239 402
-458 454 -80 19 -226 18 -298 -1z m28 -482 c2 -8 -5 -11 -20 -10 -17 2 -23 -2
-23 -16 0 -28 17 -29 45 -4 25 24 95 35 105 17 3 -5 15 -3 25 3 15 10 22 10
32 0 8 -8 15 -9 25 -1 9 9 17 8 28 -1 11 -9 15 -10 15 -1 0 7 10 12 23 11 12
-1 25 -2 30 -1 19 3 22 -1 22 -29 0 -34 -15 -42 -16 -7 l0 22 -9 -22 c-5 -13
-16 -23 -24 -23 -8 0 -17 -6 -19 -12 -3 -7 -6 -2 -6 12 -1 14 -5 20 -9 14 -4
-6 -33 -11 -64 -12 -51 -1 -58 1 -58 18 0 11 -4 20 -10 20 -5 0 -10 -9 -10
-21 0 -14 -5 -19 -14 -16 -7 3 -18 1 -23 -4 -7 -7 -16 -5 -27 6 -9 9 -16 12
-16 6 0 -6 -13 -11 -29 -11 -35 0 -48 27 -31 60 12 23 50 24 58 2z m-18 -134
c-1 -35 -3 -40 -11 -25 -10 17 -5 67 6 67 3 0 5 -19 5 -42z m298 7 c2 -15 -1
-32 -7 -38 -8 -8 -11 -8 -11 1 0 7 -16 12 -40 12 -31 0 -40 4 -41 18 -1 14 -2
13 -7 -3 l-5 -20 -8 20 c-6 17 -8 17 -8 3 -1 -16 -12 -18 -81 -17 -70 1 -80 3
-80 19 0 18 5 19 88 22 9 0 48 -1 87 -2 41 -2 71 2 73 8 7 21 37 5 40 -23z"/>
<path d="M9260 6751 c0 -6 5 -13 10 -16 6 -3 10 1 10 9 0 9 -4 16 -10 16 -5 0
-10 -4 -10 -9z"/>
<path d="M9375 6750 c-8 -13 9 -20 24 -11 10 6 9 10 -3 14 -8 3 -18 2 -21 -3z"/>
<path d="M9485 6751 c-3 -5 -1 -12 5 -16 5 -3 10 1 10 9 0 18 -6 21 -15 7z"/>
<path d="M1806 7195 c-123 -31 -246 -121 -315 -230 -102 -161 -102 -388 -1
-548 150 -237 446 -316 692 -185 69 37 156 118 193 182 17 30 31 43 41 39 15
-6 20 12 5 22 -6 3 -4 19 4 38 7 18 18 65 23 105 34 244 -110 480 -343 563
-78 28 -218 34 -299 14z m251 -19 c201 -54 341 -212 375 -423 20 -130 -30
-293 -123 -397 -194 -219 -539 -223 -739 -10 -190 203 -186 501 9 694 106 105
208 148 351 149 41 1 99 -6 127 -13z"/>
<path d="M1652 6740 c0 -25 2 -37 5 -27 2 9 13 17 23 17 10 0 21 -8 23 -17 3
-10 5 0 5 22 0 22 -2 34 -5 28 -7 -19 -41 -16 -46 5 -3 9 -5 -3 -5 -28z"/>
<path d="M1980 6740 c0 -37 2 -40 28 -39 23 2 24 2 5 6 -13 2 -23 8 -23 13 0
5 10 11 23 13 l22 4 -22 2 c-28 1 -31 21 -3 21 11 0 20 5 20 10 0 6 -11 10
-25 10 -22 0 -25 -4 -25 -40z"/>
<path d="M2100 6737 c0 -20 3 -37 8 -37 4 0 7 13 7 29 0 16 -3 33 -7 37 -5 4
-8 -9 -8 -29z"/>
<path d="M2150 6735 c0 -19 4 -35 9 -35 5 0 7 9 4 20 -3 11 -1 20 5 20 13 0
25 -36 17 -50 -3 -5 -2 -10 3 -10 6 0 15 14 21 31 15 44 14 56 -4 33 -8 -10
-15 -14 -15 -9 0 6 -9 16 -20 23 -19 11 -20 10 -20 -23z"/>
<path d="M1721 6733 c-1 -29 2 -33 24 -33 20 0 25 5 25 25 0 14 -4 25 -10 25
-5 0 -10 -9 -10 -20 0 -30 -18 -24 -23 8 -4 25 -4 25 -6 -5z"/>
<path d="M1792 6752 c-7 -2 -11 -16 -11 -30 2 -24 2 -24 6 -4 2 12 8 22 13 22
5 0 11 -10 13 -22 l4 -23 2 23 c0 12 5 22 10 22 5 0 12 -10 14 -22 4 -16 5
-14 4 6 -2 29 -22 39 -55 28z"/>
<path d="M1870 6750 c-10 -6 -8 -9 6 -13 16 -4 17 -5 2 -6 -29 -2 -22 -31 7
-31 20 0 25 5 25 24 0 26 -19 39 -40 26z"/>
<path d="M1933 6753 c-7 -3 -12 -17 -12 -31 2 -24 2 -24 6 -4 5 27 23 29 23 2
0 -11 5 -20 10 -20 14 0 12 36 -2 47 -7 6 -19 8 -25 6z"/>
<path d="M2053 6753 c-7 -3 -13 -17 -12 -31 0 -26 1 -26 9 -4 5 12 14 22 19
22 5 0 12 -10 14 -22 4 -21 4 -20 6 3 1 27 -14 40 -36 32z"/>
<path d="M2132 6725 c0 -16 2 -22 5 -12 2 9 2 23 0 30 -3 6 -5 -1 -5 -18z"/>
<path d="M1927 6653 c-2 -5 0 -21 4 -38 7 -29 7 -29 8 8 1 35 -3 46 -12 30z"/>
<path d="M4379 7030 c-8 -21 -16 -29 -26 -26 -8 3 -18 6 -21 6 -4 0 -1 4 7 9
7 5 9 11 4 14 -5 3 -15 1 -23 -4 -13 -8 -12 -12 5 -26 16 -13 17 -15 3 -10
-10 4 -18 2 -18 -3 0 -5 16 -9 35 -8 19 1 35 5 35 10 0 4 7 8 15 8 8 0 15 -4
15 -8 0 -5 16 -9 35 -10 32 -1 35 1 34 26 0 27 0 27 -10 4 -10 -25 -28 -21
-30 6 -1 10 -4 7 -8 -8 -7 -25 -8 -24 -15 7 -10 45 -25 50 -37 13z"/>
<path d="M4780 7019 c0 -38 1 -40 28 -37 24 3 27 7 24 33 -4 30 -16 45 -39 45
-8 0 -13 -15 -13 -41z m35 11 c-3 -5 -10 -10 -16 -10 -5 0 -9 5 -9 10 0 6 7
10 16 10 8 0 12 -4 9 -10z m5 -30 c0 -5 -7 -10 -15 -10 -8 0 -15 5 -15 10 0 6
7 10 15 10 8 0 15 -4 15 -10z"/>
<path d="M4490 7017 c0 -20 3 -37 8 -37 4 0 7 13 7 29 0 16 -3 33 -7 37 -5 4
-8 -9 -8 -29z"/>
<path d="M4522 7015 c0 -23 3 -30 5 -17 2 12 8 22 13 22 5 0 11 -10 13 -22 4
-17 5 -16 4 5 -1 15 -6 27 -11 26 -5 0 -13 5 -17 13 -6 8 -8 -2 -7 -27z"/>
<path d="M4738 7039 c-10 -5 -18 -21 -18 -34 0 -20 5 -25 25 -25 22 0 25 4 25
35 0 37 -5 40 -32 24z m12 -34 c0 -8 -4 -15 -10 -15 -5 0 -10 7 -10 15 0 8 5
15 10 15 6 0 10 -7 10 -15z"/>
<path d="M4581 7030 c-19 -11 -9 -45 14 -45 13 0 21 8 23 21 3 23 -17 37 -37
24z m27 -21 c-2 -6 -8 -10 -13 -10 -5 0 -11 4 -13 10 -2 6 4 11 13 11 9 0 15
-5 13 -11z"/>
<path d="M4643 7033 c-7 -3 -12 -17 -12 -31 2 -24 2 -24 6 -4 5 28 19 29 26 1
7 -27 41 -22 45 7 3 23 -23 40 -34 22 -4 -6 -9 -6 -13 -1 -3 6 -12 8 -18 6z"/>
<path d="M4846 7019 c4 -13 8 -32 8 -41 0 -10 2 -18 4 -18 7 0 33 72 28 78 -3
2 -10 -6 -15 -19 -7 -16 -10 -19 -10 -7 -1 9 -6 20 -12 24 -8 4 -9 -1 -3 -17z"/>
<path d="M4292 7005 c0 -16 2 -22 5 -12 2 9 2 23 0 30 -3 6 -5 -1 -5 -18z"/>
<path d="M4580 6890 c0 -5 5 -10 10 -10 6 0 10 5 10 10 0 6 -4 10 -10 10 -5 0
-10 -4 -10 -10z"/>
<path d="M4498 6786 c-10 -7 -18 -21 -18 -30 0 -27 -18 -18 -23 12 -4 25 -4
25 -6 -5 -1 -29 2 -33 23 -33 18 0 26 7 29 23 l4 22 2 -22 c1 -30 41 -33 41
-3 0 27 18 25 23 -2 4 -20 4 -19 6 4 1 18 -6 31 -18 38 -29 15 -31 13 -32 -22
l-2 -33 -6 32 c-5 28 -8 30 -23 19z"/>
<path d="M4770 6789 c0 -5 -4 -8 -9 -4 -6 3 -14 -2 -19 -10 -8 -14 -10 -15
-21 -1 -16 19 -41 10 -41 -15 0 -25 26 -35 45 -19 10 9 15 9 15 1 0 -6 9 -11
20 -11 16 0 20 7 20 35 0 19 -2 35 -5 35 -3 0 -5 -5 -5 -11z m0 -34 c0 -8 -4
-15 -10 -15 -5 0 -10 7 -10 15 0 8 5 15 10 15 6 0 10 -7 10 -15z"/>
<path d="M4400 6780 c-10 -6 -8 -9 6 -13 16 -4 17 -5 2 -6 -29 -2 -22 -31 7
-31 20 0 25 5 25 24 0 26 -19 39 -40 26z"/>
<path d="M4603 6783 c-7 -3 -13 -16 -13 -29 0 -17 5 -24 20 -24 11 0 23 7 27
16 7 18 -16 44 -34 37z m19 -28 c0 -5 -5 -11 -11 -13 -6 -2 -11 4 -11 13 0 9
5 15 11 13 6 -2 11 -8 11 -13z"/>
<path d="M4650 6755 c0 -14 2 -25 4 -25 2 0 6 11 8 25 3 14 1 25 -3 25 -5 0
-9 -11 -9 -25z"/>
<path d="M4595 6578 c5 -63 35 -621 35 -648 0 -6 -9 -10 -20 -10 -21 0 -28
-24 -10 -35 5 -3 14 -14 20 -25 9 -16 4 -20 -41 -29 -106 -23 -225 -105 -276
-191 -22 -38 -29 -38 -48 0 -18 35 -31 38 -40 10 -3 -11 -10 -20 -14 -20 -4 0
-8 -6 -8 -12 0 -7 -4 -21 -8 -30 -6 -16 -2 -17 38 -12 l46 7 -16 -53 c-11 -36
-14 -81 -11 -144 3 -76 9 -102 35 -157 17 -37 47 -85 68 -107 l36 -41 -40 -12
c-42 -12 -52 -25 -27 -35 8 -3 12 -13 9 -25 -3 -10 0 -19 6 -19 6 0 11 5 11
12 0 6 7 4 18 -5 27 -24 32 -21 32 17 0 19 4 37 8 40 4 2 41 -12 82 -32 72
-36 76 -37 189 -37 110 0 119 2 182 32 36 18 89 55 117 83 28 27 53 50 56 50
2 0 153 -101 335 -224 296 -201 385 -257 368 -229 -3 5 -161 114 -350 243
l-345 234 20 40 c63 123 62 271 -3 398 -28 54 -103 134 -157 165 -53 31 -153
63 -198 63 -19 0 -34 2 -34 4 0 3 9 21 21 40 l21 36 -25 0 c-24 0 -25 3 -31
83 -3 45 -10 172 -16 282 -14 292 -21 365 -31 365 -6 0 -8 -29 -4 -72z m198
-778 c126 -39 230 -144 268 -272 73 -239 -82 -487 -329 -527 -281 -45 -526
211 -468 488 51 244 291 385 529 311z m-547 -167 c22 -29 16 -43 -15 -43 -28
0 -29 1 -18 30 13 35 15 36 33 13z m131 -620 c-3 -2 -18 3 -33 13 l-27 18 29
12 c27 11 29 11 32 -13 2 -14 1 -27 -1 -30z"/>
<path d="M4372 5438 c-5 -7 -9 -24 -8 -38 1 -27 31 -39 50 -20 8 8 5 16 -14
31 l-25 20 25 -7 c22 -6 23 -5 11 10 -16 19 -25 20 -39 4z m28 -48 c0 -5 -4
-10 -9 -10 -6 0 -13 5 -16 10 -3 6 1 10 9 10 9 0 16 -4 16 -10z"/>
<path d="M4737 5443 c-4 -3 -7 -21 -7 -40 0 -31 2 -33 33 -32 23 1 26 3 10 6
-13 2 -23 8 -23 13 0 5 10 11 23 13 l22 4 -22 2 c-28 1 -31 21 -3 21 11 0 20
5 20 10 0 11 -43 14 -53 3z"/>
<path d="M4540 5407 c0 -20 3 -37 8 -37 4 0 7 13 7 29 0 16 -3 33 -7 37 -5 4
-8 -9 -8 -29z"/>
<path d="M4700 5411 c0 -17 5 -33 10 -36 6 -4 10 8 10 29 0 20 -4 36 -10 36
-5 0 -10 -13 -10 -29z"/>
<path d="M4858 5435 c-3 -6 -4 -22 -1 -38 7 -36 43 -38 43 -2 0 31 -20 33 -21
3 -1 -14 -4 -10 -8 12 -3 19 -9 30 -13 25z"/>
<path d="M4910 5405 c0 -19 4 -35 9 -35 5 0 7 9 4 20 -3 11 0 20 6 20 10 0 15
-16 14 -47 -1 -7 1 -13 4 -13 7 0 34 72 29 78 -3 2 -10 -6 -15 -19 -7 -17 -10
-19 -10 -7 -1 10 -10 22 -21 28 -18 10 -20 8 -20 -25z"/>
<path d="M4443 5423 c-7 -3 -13 -16 -13 -29 0 -17 6 -24 20 -24 12 0 20 7 21
18 0 15 1 14 8 -2 7 -19 8 -19 13 2 8 29 25 28 31 0 4 -21 4 -20 6 3 1 29 -17
42 -40 29 -7 -5 -18 -5 -24 -1 -5 5 -16 6 -22 4z"/>
<path d="M4602 5421 c-19 -11 -11 -45 11 -49 9 -2 20 4 23 13 9 21 -16 47 -34
36z"/>
<path d="M4663 5423 c-7 -3 -12 -17 -12 -31 2 -24 2 -24 6 -4 2 12 8 22 13 22
5 0 11 -10 13 -22 4 -20 4 -20 6 4 1 29 -7 38 -26 31z"/>
<path d="M4813 5423 c-7 -3 -12 -17 -12 -31 2 -24 2 -24 6 -4 5 27 23 29 23 2
0 -11 5 -20 10 -20 14 0 12 36 -2 47 -7 6 -19 8 -25 6z"/>
<path d="M4572 5395 c0 -16 2 -22 5 -12 2 9 2 23 0 30 -3 6 -5 -1 -5 -18z"/>
<path d="M2450 6440 c0 -5 7 -10 15 -10 8 0 15 5 15 10 0 6 -7 10 -15 10 -8 0
-15 -4 -15 -10z"/>
<path d="M2502 6421 c2 -7 7 -12 11 -12 12 1 9 15 -3 20 -7 2 -11 -2 -8 -8z"/>
<path d="M2540 6400 c0 -5 7 -10 15 -10 8 0 15 5 15 10 0 6 -7 10 -15 10 -8 0
-15 -4 -15 -10z"/>
<path d="M2592 6381 c4 -13 18 -16 19 -4 0 4 -5 9 -11 12 -7 2 -11 -2 -8 -8z"/>
<path d="M2636 6362 c-3 -6 -1 -14 5 -17 15 -10 25 3 12 16 -7 7 -13 7 -17 1z"/>
<path d="M2680 6330 c0 -5 7 -10 15 -10 8 0 15 5 15 10 0 6 -7 10 -15 10 -8 0
-15 -4 -15 -10z"/>
<path d="M2730 6310 c0 -5 5 -10 10 -10 6 0 10 5 10 10 0 6 -4 10 -10 10 -5 0
-10 -4 -10 -10z"/>
<path d="M2770 6290 c0 -5 7 -10 15 -10 8 0 15 5 15 10 0 6 -7 10 -15 10 -8 0
-15 -4 -15 -10z"/>
<path d="M2822 6271 c4 -13 18 -16 19 -4 0 4 -5 9 -11 12 -7 2 -11 -2 -8 -8z"/>
<path d="M2870 6250 c0 -5 5 -10 10 -10 6 0 10 5 10 10 0 6 -4 10 -10 10 -5 0
-10 -4 -10 -10z"/>
<path d="M2912 6229 c2 -7 10 -15 17 -17 8 -3 12 1 9 9 -2 7 -10 15 -17 17 -8
3 -12 -1 -9 -9z"/>
<path d="M2960 6200 c0 -5 5 -10 10 -10 6 0 10 5 10 10 0 6 -4 10 -10 10 -5 0
-10 -4 -10 -10z"/>
<path d="M3000 6180 c0 -5 7 -10 15 -10 8 0 15 5 15 10 0 6 -7 10 -15 10 -8 0
-15 -4 -15 -10z"/>
<path d="M3050 6160 c0 -5 7 -10 15 -10 8 0 15 5 15 10 0 6 -7 10 -15 10 -8 0
-15 -4 -15 -10z"/>
<path d="M3090 6044 c0 -9 9 -18 20 -21 11 -3 20 -10 20 -15 0 -6 -9 -8 -20
-5 -11 3 -20 1 -20 -4 0 -13 38 -11 46 2 4 7 -4 20 -17 31 l-24 20 23 -5 c12
-3 22 -1 22 4 0 5 -11 9 -25 9 -16 0 -25 -6 -25 -16z"/>
<path d="M3211 6028 c-1 -32 2 -38 19 -38 15 0 20 7 20 25 0 15 -6 25 -14 25
-8 0 -17 6 -19 13 -3 6 -6 -5 -6 -25z m29 -13 c0 -8 -4 -15 -10 -15 -5 0 -10
7 -10 15 0 8 5 15 10 15 6 0 10 -7 10 -15z"/>
<path d="M3323 6025 c0 -22 2 -30 4 -17 2 12 2 30 0 40 -3 9 -5 -1 -4 -23z"/>
<path d="M3581 6023 c1 -34 2 -35 9 -13 11 36 11 50 0 50 -5 0 -10 -17 -9 -37z"/>
<path d="M3154 6015 c1 -11 9 -21 19 -23 13 -3 17 3 16 25 -1 23 -2 24 -6 6
-5 -27 -20 -30 -26 -5 -3 13 -4 12 -3 -3z"/>
<path d="M3370 6030 c0 -5 -7 -10 -15 -10 -8 0 -15 -7 -15 -15 0 -9 9 -15 24
-15 19 0 22 4 18 25 -4 25 -12 34 -12 15z"/>
<path d="M3400 6030 c0 -6 8 -14 17 -17 15 -6 15 -7 -3 -14 -16 -6 -16 -8 -2
-8 26 -1 29 14 7 32 -10 9 -19 12 -19 7z"/>
<path d="M3450 6030 c0 -6 8 -14 17 -17 15 -6 15 -7 -3 -14 -16 -6 -16 -8 -2
-8 26 -1 29 14 7 32 -10 9 -19 12 -19 7z"/>
<path d="M3527 6027 c-8 -20 9 -41 27 -34 23 9 21 47 -3 47 -10 0 -21 -6 -24
-13z m33 -12 c0 -8 -4 -15 -9 -15 -13 0 -22 16 -14 24 11 11 23 6 23 -9z"/>
<path d="M3266 6006 c7 -19 30 -21 40 -4 4 7 3 8 -5 4 -6 -4 -19 -2 -27 5 -12
10 -13 9 -8 -5z"/>
<path d="M3600 5900 c0 -5 7 -10 16 -10 8 0 12 5 9 10 -3 6 -10 10 -16 10 -5
0 -9 -4 -9 -10z"/>
<path d="M3640 5880 c0 -5 7 -10 15 -10 8 0 15 5 15 10 0 6 -7 10 -15 10 -8 0
-15 -4 -15 -10z"/>
<path d="M3690 5860 c0 -5 7 -10 15 -10 8 0 15 5 15 10 0 6 -7 10 -15 10 -8 0
-15 -4 -15 -10z"/>
<path d="M3742 5841 c4 -13 18 -16 19 -4 0 4 -5 9 -11 12 -7 2 -11 -2 -8 -8z"/>
<path d="M3786 5815 c4 -8 10 -12 15 -9 11 6 2 24 -11 24 -5 0 -7 -7 -4 -15z"/>
<path d="M3835 5801 c-3 -5 -1 -12 5 -16 5 -3 10 1 10 9 0 18 -6 21 -15 7z"/>
<path d="M3876 5782 c-3 -6 -1 -14 5 -17 15 -10 25 3 12 16 -7 7 -13 7 -17 1z"/>
<path d="M3920 5750 c0 -5 7 -10 15 -10 8 0 15 5 15 10 0 6 -7 10 -15 10 -8 0
-15 -4 -15 -10z"/>
<path d="M3970 5730 c0 -5 5 -10 10 -10 6 0 10 5 10 10 0 6 -4 10 -10 10 -5 0
-10 -4 -10 -10z"/>
<path d="M4010 5710 c0 -5 7 -10 15 -10 8 0 15 5 15 10 0 6 -7 10 -15 10 -8 0
-15 -4 -15 -10z"/>
<path d="M4062 5689 c2 -7 10 -15 17 -17 8 -3 12 1 9 9 -2 7 -10 15 -17 17 -8
3 -12 -1 -9 -9z"/>
<path d="M4110 5666 c0 -9 5 -16 10 -16 6 0 10 4 10 9 0 6 -4 13 -10 16 -5 3
-10 -1 -10 -9z"/>
<path d="M4156 5652 c-3 -6 -1 -14 5 -17 15 -10 25 3 12 16 -7 7 -13 7 -17 1z"/>
<path d="M4290 4964 c0 -8 5 -12 10 -9 6 3 10 10 10 16 0 5 -4 9 -10 9 -5 0
-10 -7 -10 -16z"/>
<path d="M4260 4930 c0 -5 5 -10 10 -10 6 0 10 5 10 10 0 6 -4 10 -10 10 -5 0
-10 -4 -10 -10z"/>
<path d="M4220 4890 c0 -5 4 -10 9 -10 6 0 13 5 16 10 3 6 -1 10 -9 10 -9 0
-16 -4 -16 -10z"/>
<path d="M4196 4861 c-4 -7 -5 -15 -2 -18 9 -9 19 4 14 18 -4 11 -6 11 -12 0z"/>
<path d="M4166 4821 c-4 -7 -5 -15 -2 -18 9 -9 19 4 14 18 -4 11 -6 11 -12 0z"/>
<path d="M4125 4781 c-6 -11 9 -23 19 -14 9 9 7 23 -3 23 -6 0 -12 -4 -16 -9z"/>
<path d="M4095 4739 c-10 -15 3 -25 16 -12 7 7 7 13 1 17 -6 3 -14 1 -17 -5z"/>
<path d="M4066 4701 c-4 -7 -5 -15 -2 -18 9 -9 19 4 14 18 -4 11 -6 11 -12 0z"/>
<path d="M4030 4654 c0 -8 5 -12 10 -9 6 3 10 10 10 16 0 5 -4 9 -10 9 -5 0
-10 -7 -10 -16z"/>
<path d="M3995 4620 c-3 -5 1 -10 9 -10 9 0 16 5 16 10 0 6 -4 10 -9 10 -6 0
-13 -4 -16 -10z"/>
<path d="M5863 4570 c0 -25 2 -35 4 -22 2 12 2 32 0 45 -2 12 -4 2 -4 -23z"/>
<path d="M5691 4562 c0 -32 1 -34 9 -14 5 12 14 22 19 22 5 0 12 -10 14 -22 4
-16 5 -15 4 6 -2 20 -9 31 -24 37 -21 8 -23 6 -22 -29z"/>
<path d="M5940 4567 c0 -20 3 -37 8 -37 4 0 7 13 7 29 0 16 -3 33 -7 37 -5 4
-8 -9 -8 -29z"/>
<path d="M6080 4571 c0 -17 5 -33 10 -36 6 -4 10 8 10 29 0 20 -4 36 -10 36
-5 0 -10 -13 -10 -29z"/>
<path d="M3965 4580 c-3 -5 -2 -10 4 -10 5 0 13 5 16 10 3 6 2 10 -4 10 -5 0
-13 -4 -16 -10z"/>
<path d="M5761 4580 c-11 -6 -10 -9 5 -13 16 -4 17 -5 2 -6 -10 0 -18 -8 -18
-16 0 -10 12 -14 45 -13 50 1 65 11 38 27 -11 6 -13 11 -5 11 7 0 10 5 7 10
-5 8 -11 7 -21 -1 -10 -8 -18 -8 -27 -1 -7 6 -18 7 -26 2z m64 -38 c-3 -3 -11
0 -18 7 -9 10 -8 11 6 5 10 -3 15 -9 12 -12z"/>
<path d="M5898 4583 c-19 -5 -26 -53 -8 -53 6 0 10 9 10 20 0 27 18 25 23 -2
4 -20 4 -20 6 4 1 30 -6 36 -31 31z"/>
<path d="M5981 4581 c-25 -16 -8 -46 27 -48 25 -1 32 3 32 18 0 27 20 24 21
-3 1 -18 2 -19 6 -5 8 33 -4 48 -30 38 -14 -6 -28 -6 -33 -1 -5 5 -15 5 -23 1z"/>
<path d="M3930 4540 c0 -5 5 -10 10 -10 6 0 10 5 10 10 0 6 -4 10 -10 10 -5 0
-10 -4 -10 -10z"/>
<path d="M3900 4500 c0 -5 5 -10 10 -10 6 0 10 5 10 10 0 6 -4 10 -10 10 -5 0
-10 -4 -10 -10z"/>
<path d="M3865 4469 c-4 -6 -5 -13 -2 -16 7 -7 27 6 27 18 0 12 -17 12 -25 -2z"/>
<path d="M6070 4447 c8 -8 150 -106 315 -217 165 -112 302 -205 305 -207 2 -2
-1 -13 -8 -23 -11 -19 -9 -20 34 -20 25 0 44 -3 42 -7 -31 -62 -50 -115 -59
-168 -30 -176 67 -367 229 -448 l67 -33 -34 -29 c-32 -28 -32 -29 -12 -37 12
-4 21 -11 21 -16 0 -5 16 -8 35 -8 38 1 37 -2 20 61 -6 19 -1 20 103 20 105 0
110 1 183 37 120 60 204 162 233 287 8 35 17 65 20 68 3 3 19 -5 36 -17 17
-12 34 -20 36 -17 7 7 7 97 0 104 -3 3 -21 -4 -40 -15 l-34 -20 -12 66 c-23
142 -109 256 -238 319 -74 37 -79 38 -187 38 -108 0 -113 -1 -186 -37 -49 -24
-92 -55 -122 -87 l-46 -49 -16 40 c-15 38 -17 39 -34 24 -17 -15 -36 -3 -319
188 -271 184 -379 250 -332 203z m1232 -335 c165 -81 261 -262 231 -435 -23
-134 -109 -249 -232 -310 -62 -30 -72 -32 -176 -32 -99 0 -116 3 -168 27 -31
15 -82 51 -113 80 -174 164 -174 431 -2 594 95 90 162 115 299 111 84 -2 103
-6 161 -35z m328 -364 c0 -7 -3 -23 -6 -35 -6 -21 -7 -21 -31 -6 l-25 17 22
18 c26 21 40 23 40 6z m-616 -460 c9 -36 8 -39 -21 -32 -38 9 -39 11 -18 34
23 26 31 25 39 -2z"/>
<path d="M6800 3765 c-20 -24 -4 -65 25 -65 14 0 25 5 25 12 0 9 3 9 12 0 21
-21 48 -14 48 12 0 34 -23 38 -53 10 -31 -28 -43 -30 -51 -8 -9 24 4 36 33 30
25 -6 25 -6 7 9 -25 19 -30 19 -46 0z m100 -40 c0 -8 -4 -15 -9 -15 -13 0 -22
16 -14 24 11 11 23 6 23 -9z"/>
<path d="M7223 3740 c0 -25 2 -35 4 -22 2 12 2 32 0 45 -2 12 -4 2 -4 -23z"/>
<path d="M7060 3737 c0 -30 4 -37 20 -37 14 0 20 7 21 23 l0 22 11 -22 c11
-23 28 -31 28 -14 0 5 3 18 6 28 5 16 4 16 -10 -1 -14 -17 -16 -18 -16 -3 0
10 -8 17 -18 17 -10 0 -23 5 -30 12 -9 9 -12 4 -12 -25z m17 -19 c-3 -8 -6 -5
-6 6 -1 11 2 17 5 13 3 -3 4 -12 1 -19z"/>
<path d="M7300 3737 c0 -20 3 -37 8 -37 4 0 7 13 7 29 0 16 -3 33 -7 37 -5 4
-8 -9 -8 -29z"/>
<path d="M7440 3737 c0 -20 3 -37 8 -37 4 0 7 13 7 29 0 16 -3 33 -7 37 -5 4
-8 -9 -8 -29z"/>
<path d="M6933 3753 c-18 -7 -16 -42 3 -50 13 -5 13 -8 2 -15 -9 -7 -8 -8 7
-6 14 2 21 12 23 34 3 32 -10 45 -35 37z m19 -28 c0 -5 -5 -11 -11 -13 -6 -2
-11 4 -11 13 0 9 5 15 11 13 6 -2 11 -8 11 -13z"/>
<path d="M6993 3753 c-7 -3 -12 -17 -12 -31 2 -24 2 -24 6 -4 2 12 8 22 13 22
5 0 11 -10 13 -22 4 -20 4 -20 6 4 1 29 -7 38 -26 31z"/>
<path d="M7173 3753 c-7 -3 -13 -16 -13 -29 0 -30 35 -34 43 -4 6 21 -11 40
-30 33z"/>
<path d="M7253 3753 c-7 -3 -13 -17 -12 -31 0 -26 1 -26 9 -4 5 12 14 22 19
22 5 0 12 -10 14 -22 4 -21 4 -20 6 3 1 27 -14 40 -36 32z"/>
<path d="M7343 3753 c-7 -3 -13 -16 -13 -29 0 -29 36 -34 43 -6 4 16 5 16 6 0
1 -25 21 -23 21 2 0 28 20 25 21 -2 1 -18 2 -19 6 -5 8 33 -4 48 -30 38 -14
-5 -28 -6 -33 -2 -5 5 -15 6 -21 4z"/>
<path d="M7030 3725 c0 -14 5 -25 10 -25 6 0 10 11 10 25 0 14 -4 25 -10 25
-5 0 -10 -11 -10 -25z"/>
<path d="M3835 4429 c-10 -15 3 -25 16 -12 7 7 7 13 1 17 -6 3 -14 1 -17 -5z"/>
<path d="M3480 4310 c-16 -10 -6 -40 15 -40 8 0 15 -5 15 -11 0 -6 -9 -9 -20
-6 -11 3 -20 1 -20 -4 0 -5 11 -9 25 -9 18 0 25 5 25 20 0 11 -6 20 -14 20 -8
0 -18 5 -22 12 -5 8 0 9 14 6 12 -4 22 -3 22 2 0 12 -25 19 -40 10z"/>
<path d="M3591 4278 c-1 -32 2 -38 19 -38 15 0 20 7 20 25 0 15 -6 25 -14 25
-8 0 -17 6 -19 13 -3 6 -6 -5 -6 -25z m29 -13 c0 -8 -4 -15 -10 -15 -5 0 -10
7 -10 15 0 8 5 15 10 15 6 0 10 -7 10 -15z"/>
<path d="M3703 4275 c0 -22 2 -30 4 -17 2 12 2 30 0 40 -3 9 -5 -1 -4 -23z"/>
<path d="M3961 4273 c1 -34 2 -35 9 -13 11 36 11 50 0 50 -5 0 -10 -17 -9 -37z"/>
<path d="M3534 4265 c1 -13 9 -21 24 -23 18 -3 22 1 21 25 0 27 -1 27 -9 6
-11 -27 -27 -30 -33 -5 -3 13 -4 12 -3 -3z"/>
<path d="M3750 4280 c0 -5 -7 -10 -15 -10 -8 0 -15 -7 -15 -15 0 -9 9 -15 24
-15 19 0 22 4 18 25 -4 25 -12 34 -12 15z"/>
<path d="M3780 4280 c0 -6 8 -14 17 -17 15 -6 15 -7 -3 -14 -16 -6 -16 -8 -2
-8 26 -1 29 14 7 32 -10 9 -19 12 -19 7z"/>
<path d="M3830 4280 c0 -6 8 -14 17 -17 15 -6 15 -7 -3 -14 -16 -6 -16 -8 -2
-8 26 -1 29 14 7 32 -10 9 -19 12 -19 7z"/>
<path d="M3907 4277 c-8 -20 9 -41 27 -34 23 9 21 47 -3 47 -10 0 -21 -6 -24
-13z m33 -12 c0 -8 -4 -15 -9 -15 -13 0 -22 16 -14 24 11 11 23 6 23 -9z"/>
<path d="M3646 4256 c7 -19 30 -21 40 -4 4 7 3 8 -5 4 -6 -4 -19 -2 -27 5 -12
10 -13 9 -8 -5z"/>
<path d="M9984 4175 c-151 -33 -285 -139 -354 -279 -24 -48 -43 -103 -47 -134
-3 -30 -13 -60 -21 -69 -11 -10 -12 -17 -4 -22 6 -3 16 -36 21 -72 34 -208
155 -357 348 -425 92 -32 235 -34 326 -3 203 68 335 231 361 450 18 145 -46
312 -162 420 -132 125 -296 172 -468 134z m231 -20 c331 -87 487 -472 305
-754 -95 -149 -250 -234 -425 -234 -147 0 -262 50 -362 156 -60 64 -88 108
-113 181 -128 372 217 749 595 651z"/>
<path d="M9827 3753 c-4 -3 -7 -21 -7 -40 0 -31 2 -33 33 -32 23 1 26 3 10 6
-27 5 -30 20 -5 26 16 4 16 5 0 6 -25 1 -22 21 3 21 11 0 17 5 14 10 -7 11
-38 13 -48 3z"/>
<path d="M10133 3720 c0 -25 2 -35 4 -22 2 12 2 32 0 45 -2 12 -4 2 -4 -23z"/>
<path d="M9890 3717 c0 -20 3 -37 8 -37 4 0 7 13 7 29 0 16 -3 33 -7 37 -5 4
-8 -9 -8 -29z"/>
<path d="M9922 3715 c0 -23 3 -30 5 -17 2 12 8 22 13 22 5 0 11 -10 13 -22 4
-17 5 -16 4 5 -1 15 -6 27 -11 26 -5 0 -13 5 -17 13 -6 8 -8 -2 -7 -27z"/>
<path d="M10103 3715 c0 -22 2 -30 4 -17 2 12 2 30 0 40 -3 9 -5 -1 -4 -23z"/>
<path d="M10210 3717 c0 -20 3 -37 8 -37 4 0 7 13 7 29 0 16 -3 33 -7 37 -5 4
-8 -9 -8 -29z"/>
<path d="M10350 3721 c0 -17 5 -33 10 -36 6 -4 10 8 10 29 0 20 -4 36 -10 36
-5 0 -10 -13 -10 -29z"/>
<path d="M10000 3725 c-21 -26 -5 -42 44 -42 42 -1 46 1 46 22 0 28 -17 42
-33 26 -8 -8 -7 -11 4 -11 7 -1 2 -8 -14 -16 -15 -8 -32 -12 -37 -9 -15 9 0
27 16 21 8 -3 14 -1 14 3 0 16 -28 20 -40 6z"/>
<path d="M10163 3733 c-7 -3 -13 -17 -12 -31 0 -26 1 -26 9 -4 5 12 14 22 19
22 5 0 12 -10 14 -22 4 -21 4 -20 6 3 1 27 -14 40 -36 32z"/>
<path d="M10253 3733 c-7 -3 -13 -16 -13 -29 0 -29 36 -34 43 -6 4 16 5 16 6
0 1 -25 21 -23 21 2 0 28 20 25 21 -2 1 -18 2 -19 6 -5 8 33 -4 48 -30 38 -14
-5 -28 -6 -33 -2 -5 5 -15 6 -21 4z"/>
<path d="M9972 3705 c0 -16 2 -22 5 -12 2 9 2 23 0 30 -3 6 -5 -1 -5 -18z"/>
<path d="M10087 3633 c-2 -5 0 -21 4 -38 7 -29 7 -29 8 8 1 35 -3 46 -12 30z"/>
<path d="M3605 4150 c-3 -5 -2 -10 4 -10 5 0 13 5 16 10 3 6 2 10 -4 10 -5 0
-13 -4 -16 -10z"/>
<path d="M3575 4119 c-4 -6 -5 -13 -2 -16 7 -7 27 6 27 18 0 12 -17 12 -25 -2z"/>
<path d="M3545 4079 c-10 -15 3 -25 16 -12 7 7 7 13 1 17 -6 3 -14 1 -17 -5z"/>
<path d="M3505 4041 c-6 -11 9 -23 19 -14 9 9 7 23 -3 23 -6 0 -12 -4 -16 -9z"/>
<path d="M3475 4001 c-6 -11 9 -23 19 -14 9 9 7 23 -3 23 -6 0 -12 -4 -16 -9z"/>
<path d="M3445 3960 c-3 -5 1 -10 9 -10 9 0 16 5 16 10 0 6 -4 10 -9 10 -6 0
-13 -4 -16 -10z"/>
<path d="M3410 3914 c0 -8 5 -12 10 -9 6 3 10 10 10 16 0 5 -4 9 -10 9 -5 0
-10 -7 -10 -16z"/>
<path d="M3380 3880 c0 -5 5 -10 10 -10 6 0 10 5 10 10 0 6 -4 10 -10 10 -5 0
-10 -4 -10 -10z"/>
<path d="M3346 3845 c-3 -9 0 -15 9 -15 16 0 20 16 6 24 -5 3 -11 -1 -15 -9z"/>
<path d="M3310 3800 c0 -5 4 -10 9 -10 6 0 13 5 16 10 3 6 -1 10 -9 10 -9 0
-16 -4 -16 -10z"/>
<path d="M3286 3771 c-4 -7 -5 -15 -2 -18 9 -9 19 4 14 18 -4 11 -6 11 -12 0z"/>
<path d="M3250 3724 c0 -8 5 -12 10 -9 6 3 10 10 10 16 0 5 -4 9 -10 9 -5 0
-10 -7 -10 -16z"/>
<path d="M7670 3730 c0 -5 7 -10 16 -10 8 0 12 5 9 10 -3 6 -10 10 -16 10 -5
0 -9 -4 -9 -10z"/>
<path d="M7720 3730 c0 -6 7 -10 15 -10 8 0 15 2 15 4 0 2 -7 6 -15 10 -8 3
-15 1 -15 -4z"/>
<path d="M8323 3733 c-20 -7 -15 -31 7 -38 26 -8 26 -29 0 -22 -11 3 -18 1
-14 -4 6 -11 41 -12 48 -1 7 11 -6 27 -27 35 -10 4 -15 12 -12 17 5 8 11 7 21
-1 8 -7 14 -7 14 -1 0 12 -21 21 -37 15z"/>
<path d="M7770 3720 c0 -5 4 -10 9 -10 6 0 13 5 16 10 3 6 -1 10 -9 10 -9 0
-16 -4 -16 -10z"/>
<path d="M7820 3720 c0 -5 4 -10 9 -10 6 0 13 5 16 10 3 6 -1 10 -9 10 -9 0
-16 -4 -16 -10z"/>
<path d="M7870 3720 c0 -5 7 -10 15 -10 8 0 15 5 15 10 0 6 -7 10 -15 10 -8 0
-15 -4 -15 -10z"/>
<path d="M7920 3720 c0 -5 7 -10 15 -10 8 0 15 5 15 10 0 6 -7 10 -15 10 -8 0
-15 -4 -15 -10z"/>
<path d="M7970 3720 c0 -5 7 -10 15 -10 8 0 15 5 15 10 0 6 -7 10 -15 10 -8 0
-15 -4 -15 -10z"/>
<path d="M8020 3720 c0 -5 7 -10 15 -10 8 0 15 5 15 10 0 6 -7 10 -15 10 -8 0
-15 -4 -15 -10z"/>
<path d="M8075 3720 c-3 -5 1 -10 9 -10 9 0 16 5 16 10 0 6 -4 10 -9 10 -6 0
-13 -4 -16 -10z"/>
<path d="M8430 3697 c0 -34 3 -38 23 -35 14 2 23 11 25 26 3 19 -2 24 -24 21
-4 0 -11 5 -15 13 -6 8 -9 0 -9 -25z m40 -13 c0 -16 -16 -19 -25 -4 -8 13 4
32 16 25 5 -4 9 -13 9 -21z"/>
<path d="M8543 3695 c0 -22 2 -30 4 -17 2 12 2 30 0 40 -3 9 -5 -1 -4 -23z"/>
<path d="M8813 3695 c0 -22 2 -30 4 -17 2 12 2 30 0 40 -3 9 -5 -1 -4 -23z"/>
<path d="M8180 3710 c0 -5 5 -10 10 -10 6 0 10 5 10 10 0 6 -4 10 -10 10 -5 0
-10 -4 -10 -10z"/>
<path d="M8574 3709 c-4 -8 -3 -9 4 -5 7 4 12 3 12 -2 0 -6 -7 -13 -16 -16
-20 -8 -9 -26 17 -26 23 0 26 32 5 49 -11 9 -16 9 -22 0z"/>
<path d="M8381 3688 c-1 -22 4 -28 19 -28 15 0 20 6 19 28 -2 23 -2 24 -6 5
-2 -13 -8 -23 -13 -23 -5 0 -11 10 -13 23 -4 19 -4 18 -6 -5z"/>
<path d="M8490 3685 c0 -25 23 -35 35 -15 3 6 -1 7 -9 4 -10 -4 -16 -1 -16 9
0 9 8 18 18 20 13 4 11 5 -5 6 -18 1 -23 -4 -23 -24z"/>
<path d="M8623 3687 c0 -20 4 -27 15 -25 20 4 28 28 9 28 -9 0 -17 6 -20 13
-2 6 -4 -1 -4 -16z"/>
<path d="M8673 3683 c0 -16 5 -23 18 -23 11 0 19 7 19 15 0 8 -6 15 -12 15 -9
0 -8 3 2 10 12 7 10 9 -6 8 -15 -2 -21 -9 -21 -25z"/>
<path d="M8750 3685 c0 -18 5 -25 20 -25 15 0 20 7 20 25 0 18 -5 25 -20 25
-15 0 -20 -7 -20 -25z m30 0 c0 -8 -4 -15 -10 -15 -5 0 -10 7 -10 15 0 8 5 15
10 15 6 0 10 -7 10 -15z"/>
<path d="M8940 3700 c0 -5 5 -10 11 -10 5 0 7 5 4 10 -3 6 -8 10 -11 10 -2 0
-4 -4 -4 -10z"/>
<path d="M3215 3691 c-6 -11 9 -23 19 -14 9 9 7 23 -3 23 -6 0 -12 -4 -16 -9z"/>
<path d="M8990 3690 c0 -5 5 -10 10 -10 6 0 10 5 10 10 0 6 -4 10 -10 10 -5 0
-10 -4 -10 -10z"/>
<path d="M9040 3690 c0 -5 4 -10 9 -10 6 0 13 5 16 10 3 6 -1 10 -9 10 -9 0
-16 -4 -16 -10z"/>
<path d="M9090 3690 c0 -5 7 -10 15 -10 8 0 15 5 15 10 0 6 -7 10 -15 10 -8 0
-15 -4 -15 -10z"/>
<path d="M9140 3690 c0 -5 7 -10 16 -10 8 0 12 5 9 10 -3 6 -10 10 -16 10 -5
0 -9 -4 -9 -10z"/>
<path d="M9190 3690 c0 -5 7 -10 15 -10 8 0 15 5 15 10 0 6 -7 10 -15 10 -8 0
-15 -4 -15 -10z"/>
<path d="M9245 3690 c-3 -5 1 -10 9 -10 9 0 16 5 16 10 0 6 -4 10 -9 10 -6 0
-13 -4 -16 -10z"/>
<path d="M9295 3690 c-3 -5 1 -10 9 -10 9 0 16 5 16 10 0 6 -4 10 -9 10 -6 0
-13 -4 -16 -10z"/>
<path d="M9348 3683 c7 -3 16 -2 19 1 4 3 -2 6 -13 5 -11 0 -14 -3 -6 -6z"/>
<path d="M9395 3680 c3 -5 10 -10 16 -10 5 0 9 5 9 10 0 6 -7 10 -16 10 -8 0
-12 -4 -9 -10z"/>
<path d="M9445 3680 c3 -5 10 -10 16 -10 5 0 9 5 9 10 0 6 -7 10 -16 10 -8 0
-12 -4 -9 -10z"/>
<path d="M9495 3680 c3 -5 10 -10 16 -10 5 0 9 5 9 10 0 6 -7 10 -16 10 -8 0
-12 -4 -9 -10z"/>
<path d="M3185 3649 c-4 -6 -5 -13 -2 -16 7 -7 27 6 27 18 0 12 -17 12 -25 -2z"/>
<path d="M3150 3604 c0 -8 5 -12 10 -9 6 3 10 10 10 16 0 5 -4 9 -10 9 -5 0
-10 -7 -10 -16z"/>
<path d="M2677 3569 c-119 -28 -237 -124 -289 -235 -101 -217 -15 -465 200
-571 75 -37 78 -38 191 -38 110 0 119 2 181 32 258 126 328 461 141 674 -21
24 -36 50 -33 58 3 10 0 12 -12 8 -9 -4 -36 6 -63 23 -86 52 -216 73 -316 49z
m214 -25 c220 -65 347 -298 280 -513 -77 -248 -340 -363 -575 -253 -158 74
-257 262 -228 431 44 250 286 405 523 335z"/>
<path d="M2487 3153 c-8 -21 -13 -40 -10 -43 3 -3 8 1 10 8 3 6 11 12 18 12 7
0 15 -6 18 -12 2 -7 7 -10 11 -7 6 6 -20 79 -28 79 -2 0 -11 -17 -19 -37z"/>
<path d="M2637 3184 c-4 -4 -7 -23 -6 -43 l1 -36 9 33 c11 36 9 58 -4 46z"/>
<path d="M2663 3150 c0 -25 2 -35 4 -22 2 12 2 32 0 45 -2 12 -4 2 -4 -23z"/>
<path d="M2837 3183 c-4 -3 -7 -21 -7 -40 0 -31 2 -33 33 -32 23 1 26 3 10 6
-13 2 -23 8 -23 13 0 5 10 11 23 13 l22 4 -22 2 c-28 1 -31 21 -3 21 11 0 20
5 20 10 0 11 -43 14 -53 3z"/>
<path d="M2567 3165 c-12 -9 -17 -22 -14 -37 4 -23 4 -23 6 0 1 27 21 30 21 2
0 -11 3 -20 8 -20 8 0 10 55 2 63 -3 3 -13 -1 -23 -8z"/>
<path d="M2813 3145 c0 -22 2 -30 4 -17 2 12 2 30 0 40 -3 9 -5 -1 -4 -23z"/>
<path d="M2960 3145 c0 -28 4 -35 20 -35 14 0 20 7 20 23 0 12 -9 28 -20 35
-19 11 -20 10 -20 -23z m17 -17 c-3 -8 -6 -5 -6 6 -1 11 2 17 5 13 3 -3 4 -12
1 -19z"/>
<path d="M3010 3145 c0 -19 4 -35 9 -35 5 0 7 9 4 20 -3 11 0 20 6 20 10 0 15
-16 14 -47 -1 -7 1 -13 4 -13 7 0 34 72 29 78 -3 2 -10 -6 -15 -19 -7 -17 -10
-19 -10 -7 -1 10 -10 22 -21 28 -18 10 -20 8 -20 -25z"/>
<path d="M2691 3161 c-18 -11 -10 -45 12 -49 9 -2 17 1 17 7 0 6 -7 8 -15 5
-9 -4 -15 0 -15 9 0 9 8 17 18 19 10 2 13 6 7 10 -6 4 -17 3 -24 -1z"/>
<path d="M2760 3160 c-10 -6 -8 -9 6 -13 16 -4 17 -5 2 -6 -29 -2 -22 -31 7
-31 20 0 25 5 25 24 0 26 -19 39 -40 26z"/>
<path d="M2913 3163 c-7 -3 -12 -17 -12 -31 2 -24 2 -24 6 -4 5 27 23 29 23 2
0 -11 5 -20 10 -20 14 0 12 36 -2 47 -7 6 -19 8 -25 6z"/>
<path d="M2612 3135 c0 -16 2 -22 5 -12 2 9 2 23 0 30 -3 6 -5 -1 -5 -18z"/>
<path d="M2732 3135 c0 -16 2 -22 5 -12 2 9 2 23 0 30 -3 6 -5 -1 -5 -18z"/>
<path d="M3120 3564 c0 -8 5 -12 10 -9 6 3 10 10 10 16 0 5 -4 9 -10 9 -5 0
-10 -7 -10 -16z"/>
<path d="M3085 3530 c-3 -5 1 -10 9 -10 9 0 16 5 16 10 0 6 -4 10 -9 10 -6 0
-13 -4 -16 -10z"/>
<path d="M6960 3195 c0 -8 5 -15 10 -15 6 0 10 7 10 15 0 8 -4 15 -10 15 -5 0
-10 -7 -10 -15z"/>
<path d="M6946 3151 c-4 -5 -2 -12 3 -15 5 -4 12 -2 15 3 4 5 2 12 -3 15 -5 4
-12 2 -15 -3z"/>
<path d="M6930 3094 c0 -8 5 -12 10 -9 6 3 10 10 10 16 0 5 -4 9 -10 9 -5 0
-10 -7 -10 -16z"/>
<path d="M6920 3044 c0 -8 5 -12 10 -9 6 3 10 10 10 16 0 5 -4 9 -10 9 -5 0
-10 -7 -10 -16z"/>
<path d="M6905 3009 c-10 -15 3 -25 16 -12 7 7 7 13 1 17 -6 3 -14 1 -17 -5z"/>
<path d="M6896 2961 c-4 -7 -5 -15 -2 -18 9 -9 19 4 14 18 -4 11 -6 11 -12 0z"/>
<path d="M6876 2905 c-3 -8 -1 -15 4 -15 13 0 22 18 11 24 -5 3 -11 -1 -15 -9z"/>
<path d="M6860 2855 c0 -8 5 -15 10 -15 6 0 10 7 10 15 0 8 -4 15 -10 15 -5 0
-10 -7 -10 -15z"/>
<path d="M6850 2805 c0 -8 5 -15 10 -15 6 0 10 7 10 15 0 8 -4 15 -10 15 -5 0
-10 -7 -10 -15z"/>
<path d="M6836 2761 c-4 -7 -5 -15 -2 -18 9 -9 19 4 14 18 -4 11 -6 11 -12 0z"/>
<path d="M6820 2704 c0 -8 5 -12 10 -9 6 3 10 10 10 16 0 5 -4 9 -10 9 -5 0
-10 -7 -10 -16z"/>
<path d="M6805 2661 c-6 -11 9 -23 19 -14 9 9 7 23 -3 23 -6 0 -12 -4 -16 -9z"/>
<path d="M6790 2610 c0 -5 5 -10 10 -10 6 0 10 5 10 10 0 6 -4 10 -10 10 -5 0
-10 -4 -10 -10z"/>
<path d="M6780 2560 c0 -5 5 -10 10 -10 6 0 10 5 10 10 0 6 -4 10 -10 10 -5 0
-10 -4 -10 -10z"/>
<path d="M6765 2519 c-10 -15 3 -25 16 -12 7 7 7 13 1 17 -6 3 -14 1 -17 -5z"/>
<path d="M6476 2371 c-4 -5 6 -19 21 -31 l28 -21 -28 4 c-19 3 -25 1 -19 -5
13 -13 44 -7 49 9 3 7 -8 18 -24 24 l-28 12 25 7 c23 7 23 8 3 9 -12 1 -24 -3
-27 -8z"/>
<path d="M6601 2347 c-1 -31 2 -38 17 -35 22 4 30 48 9 48 -9 0 -18 6 -20 13
-3 6 -6 -5 -6 -26z m29 -12 c0 -8 -4 -15 -10 -15 -5 0 -10 7 -10 15 0 8 5 15
10 15 6 0 10 -7 10 -15z"/>
<path d="M6703 2345 c0 -22 2 -30 4 -17 2 12 2 30 0 40 -3 9 -5 -1 -4 -23z"/>
<path d="M6970 2345 c0 -19 2 -35 4 -35 2 0 6 16 8 35 2 19 0 35 -4 35 -4 0
-8 -16 -8 -35z"/>
<path d="M6660 2355 c-7 -8 -10 -22 -6 -30 6 -16 36 -21 36 -5 0 5 -7 7 -16 3
-12 -4 -15 -1 -12 13 2 10 10 18 17 16 7 -1 10 2 6 8 -8 13 -10 13 -25 -5z"/>
<path d="M6541 2338 c-1 -22 4 -28 19 -28 15 0 20 6 19 28 -2 23 -2 24 -6 5
-2 -13 -8 -23 -13 -23 -5 0 -11 10 -13 23 -4 19 -4 18 -6 -5z"/>
<path d="M6754 2351 c3 -5 -4 -11 -15 -14 -25 -7 -16 -27 12 -27 14 0 19 7 19
25 0 14 -5 25 -11 25 -5 0 -8 -4 -5 -9z"/>
<path d="M6783 2333 c0 -16 5 -23 18 -23 11 0 19 7 19 15 0 8 -6 15 -12 15 -9
0 -8 3 2 10 12 7 10 9 -6 8 -15 -2 -21 -9 -21 -25z"/>
<path d="M6834 2338 c3 -23 36 -39 36 -18 0 12 -24 40 -34 40 -3 0 -4 -10 -2
-22z"/>
<path d="M6912 2338 c4 -27 33 -36 42 -13 8 22 -1 35 -25 35 -15 0 -20 -6 -17
-22z m36 0 c-6 -18 -28 -21 -28 -4 0 9 7 16 16 16 9 0 14 -5 12 -12z"/>
<path d="M6680 2220 c0 -5 5 -10 10 -10 6 0 10 5 10 10 0 6 -4 10 -10 10 -5 0
-10 -4 -10 -10z"/>
<path d="M6676 2181 c-4 -7 -5 -15 -2 -18 9 -9 19 4 14 18 -4 11 -6 11 -12 0z"/>
<path d="M6656 2131 c-4 -7 -5 -15 -2 -18 9 -9 19 4 14 18 -4 11 -6 11 -12 0z"/>
<path d="M6640 2075 c0 -8 5 -15 10 -15 6 0 10 7 10 15 0 8 -4 15 -10 15 -5 0
-10 -7 -10 -15z"/>
<path d="M6626 2031 c-4 -5 -2 -12 3 -15 5 -4 12 -2 15 3 4 5 2 12 -3 15 -5 4
-12 2 -15 -3z"/>
<path d="M6610 1974 c0 -8 5 -12 10 -9 6 3 10 10 10 16 0 5 -4 9 -10 9 -5 0
-10 -7 -10 -16z"/>
<path d="M6600 1924 c0 -8 5 -12 10 -9 6 3 10 10 10 16 0 5 -4 9 -10 9 -5 0
-10 -7 -10 -16z"/>
<path d="M6580 1880 c0 -5 5 -10 10 -10 6 0 10 5 10 10 0 6 -4 10 -10 10 -5 0
-10 -4 -10 -10z"/>
<path d="M6570 1830 c0 -5 5 -10 10 -10 6 0 10 5 10 10 0 6 -4 10 -10 10 -5 0
-10 -4 -10 -10z"/>
<path d="M6556 1785 c-3 -8 -1 -15 4 -15 13 0 22 18 11 24 -5 3 -11 -1 -15 -9z"/>
<path d="M6546 1741 c-4 -7 -5 -15 -2 -18 9 -9 19 4 14 18 -4 11 -6 11 -12 0z"/>
<path d="M6530 1685 c0 -8 5 -15 10 -15 6 0 10 7 10 15 0 8 -4 15 -10 15 -5 0
-10 -7 -10 -15z"/>
<path d="M6516 1641 c-4 -7 -5 -15 -2 -18 9 -9 19 4 14 18 -4 11 -6 11 -12 0z"/>
<path d="M6500 1585 c0 -8 5 -15 10 -15 6 0 10 7 10 15 0 8 -4 15 -10 15 -5 0
-10 -7 -10 -15z"/>
<path d="M6486 1541 c-4 -5 -2 -12 3 -15 5 -4 12 -2 15 3 4 5 2 12 -3 15 -5 4
-12 2 -15 -3z"/>
<path d="M6470 1490 c0 -5 5 -10 10 -10 6 0 10 5 10 10 0 6 -4 10 -10 10 -5 0
-10 -4 -10 -10z"/>
<path d="M6460 1434 c0 -8 5 -12 10 -9 6 3 10 10 10 16 0 5 -4 9 -10 9 -5 0
-10 -7 -10 -16z"/>
<path d="M6228 1390 c-200 -34 -360 -171 -419 -360 -28 -89 -28 -222 0 -311
75 -238 320 -394 565 -360 289 40 495 317 446 599 -28 165 -146 322 -292 387
-42 18 -66 35 -63 43 2 6 -2 12 -9 12 -8 0 -16 -4 -18 -9 -2 -5 -24 -5 -53 -1
-60 10 -94 10 -157 0z m185 -25 c185 -39 338 -189 382 -376 90 -382 -280 -716
-652 -588 -102 35 -212 124 -270 219 -86 142 -88 356 -5 500 37 64 127 156
186 189 117 66 230 83 359 56z"/>
<path d="M6006 954 c-20 -19 -20 -38 -1 -54 18 -15 47 -10 53 10 4 13 3 13
-11 2 -20 -17 -37 -8 -37 20 0 17 4 19 27 13 23 -5 25 -4 14 9 -17 20 -26 20
-45 0z"/>
<path d="M6218 955 c-3 -6 -4 -22 -1 -38 7 -36 33 -36 32 1 l-1 27 -8 -25 c-7
-23 -7 -23 -11 10 -2 19 -7 30 -11 25z"/>
<path d="M6383 925 c0 -22 2 -30 4 -17 2 12 2 30 0 40 -3 9 -5 -1 -4 -23z"/>
<path d="M6460 927 c0 -20 3 -37 8 -37 4 0 7 13 7 29 0 16 -3 33 -7 37 -5 4
-8 -9 -8 -29z"/>
<path d="M6600 927 c0 -20 3 -37 8 -37 4 0 7 13 7 29 0 16 -3 33 -7 37 -5 4
-8 -9 -8 -29z"/>
<path d="M6110 935 c-16 -19 -5 -47 17 -43 22 4 29 43 9 51 -8 3 -20 -1 -26
-8z"/>
<path d="M6171 940 c-11 -6 -10 -9 5 -13 16 -4 17 -5 2 -6 -29 -2 -22 -31 7
-31 18 0 25 5 25 19 0 25 -22 42 -39 31z"/>
<path d="M6260 946 c0 -2 5 -17 10 -32 12 -30 24 -24 34 16 l7 25 -15 -25
c-11 -18 -15 -21 -16 -8 0 14 -20 38 -20 24z"/>
<path d="M6333 943 c-7 -3 -13 -16 -13 -29 0 -30 35 -34 43 -4 6 21 -11 40
-30 33z"/>
<path d="M6413 943 c-7 -3 -13 -17 -12 -31 0 -26 1 -26 9 -4 5 12 14 22 19 22
5 0 12 -10 14 -22 4 -21 4 -20 6 3 1 27 -14 40 -36 32z"/>
<path d="M6503 943 c-7 -3 -13 -16 -13 -29 0 -17 6 -24 20 -24 12 0 20 7 21
18 0 15 1 14 8 -2 7 -19 8 -19 13 2 8 29 25 28 31 0 4 -21 4 -20 6 3 1 29 -17
42 -40 29 -7 -5 -18 -5 -24 -1 -5 5 -16 6 -22 4z"/>
<path d="M6070 915 c0 -14 2 -25 4 -25 2 0 6 11 8 25 3 14 1 25 -3 25 -5 0 -9
-11 -9 -25z"/>
<path d="M6297 843 c-2 -5 0 -21 4 -38 7 -29 7 -29 8 8 1 35 -3 46 -12 30z"/>
</g>
</svg>
